<?xml version="1.0" encoding="UTF-8" standalone="no"?>
<svg width="54px" height="19px" viewBox="0 0 54 15" version="1.1" xmlns="http://www.w3.org/2000/svg" xmlns:xlink="http://www.w3.org/1999/xlink" xmlns:sketch="http://www.bohemiancoding.com/sketch/ns">
    <g id="Page-1" stroke="none" stroke-width="1" fill="none" fill-rule="evenodd" sketch:type="MSPage">
        <g id="-" sketch:type="MSArtboardGroup" transform="translate(0.000000, -291.000000)" fill="#C6C8CC">
            <path d="M0,304.5 C0,305.328427 0.671655983,306 1.49710104,306 L8.50289896,306 C9.32972503,306 10,305.334203 10,304.5 C10,303.671573 9.32834402,303 8.50289896,303 L1.49710104,303 C0.670274966,303 0,303.665797 0,304.5 L0,304.5 Z M44,298.5 C44,299.328427 44.671656,300 45.497101,300 L52.502899,300 C53.329725,300 54,299.334203 54,298.5 C54,297.671573 53.328344,297 52.502899,297 L45.497101,297 C44.670275,297 44,297.665797 44,298.5 L44,298.5 Z M31,292.5 C31,293.328427 31.671656,294 32.497101,294 L39.502899,294 C40.329725,294 41,293.334203 41,292.5 C41,291.671573 40.328344,291 39.502899,291 L32.497101,291 C31.670275,291 31,291.665797 31,292.5 L31,292.5 Z M0,292.5 C0,293.328427 0.665435791,294 1.5032506,294 L18.4967494,294 C19.3269718,294 20,293.334203 20,292.5 C20,291.671573 19.3345642,291 18.4967494,291 L1.5032506,291 C0.673028218,291 0,291.665797 0,292.5 L0,292.5 Z M5,298.5 C5,299.328427 5.67854548,300 6.50083274,300 L7.49916726,300 C8.3280543,300 9,299.334203 9,298.5 C9,297.671573 8.32145452,297 7.49916726,297 L6.50083274,297 C5.6719457,297 5,297.665797 5,298.5 L5,298.5 Z M29,298.5 C29,299.328427 29.6785455,300 30.5008327,300 L31.4991673,300 C32.3280543,300 33,299.334203 33,298.5 C33,297.671573 32.3214545,297 31.4991673,297 L30.5008327,297 C29.6719457,297 29,297.665797 29,298.5 L29,298.5 Z M47,292.5 C47,293.328427 47.6657972,294 48.5,294 C49.3284271,294 50,293.334203 50,292.5 C50,291.671573 49.3342028,291 48.5,291 C47.6715729,291 47,291.665797 47,292.5 L47,292.5 Z M24,292.5 C24,293.328427 24.6657972,294 25.5,294 C26.3284271,294 27,293.334203 27,292.5 C27,291.671573 26.3342028,291 25.5,291 C24.6715729,291 24,291.665797 24,292.5 L24,292.5 Z M47,304.5 C47,305.328427 47.6657972,306 48.5,306 C49.3284271,306 50,305.334203 50,304.5 C50,303.671573 49.3342028,303 48.5,303 C47.6715729,303 47,303.665797 47,304.5 L47,304.5 Z M23,298.5 C23,297.671573 22.328344,297 21.502899,297 L14.497101,297 C13.670275,297 13,297.665797 13,298.5 C13,299.328427 13.671656,300 14.497101,300 L21.502899,300 C22.329725,300 23,299.334203 23,298.5 L23,298.5 Z M40,304.5 C40,303.671573 39.1682053,303 38.1209368,303 L16.8790632,303 C15.8412853,303 15,303.665797 15,304.5 C15,305.328427 15.8317947,306 16.8790632,306 L38.1209368,306 C39.1587147,306 40,305.334203 40,304.5 L40,304.5 Z" id="ground-pattern" sketch:type="MSShapeGroup"></path>
        </g>
    </g>
</svg>