<svg xmlns="http://www.w3.org/2000/svg" width="390" height="30" viewBox="0 0 390 30" version="1.1"><g id="Page-1" stroke="none" stroke-width="1" fill="none" fill-rule="evenodd"><g id="-" transform="translate(-81.000000, -288.000000)"><g id="ground-pattern" transform="translate(81.000000, 288.000000)"><path d="M93 8.5C93 9.33 93.53 10 94.2 10L107.8 10C108.46 10 109 9.33 109 8.5 109 7.67 108.47 7 107.8 7L94.2 7C93.54 7 93 7.67 93 8.5L93 8.5ZM96 17.5C96 18.33 96.51 19 97.13 19L97.87 19C98.5 19 99 18.33 99 17.5 99 16.67 98.49 16 97.87 16L97.13 16C96.5 16 96 16.67 96 17.5L96 17.5ZM127 8.5C127 9.33 127.67 10 128.5 10 129.33 10 130 9.33 130 8.5 130 7.67 129.33 7 128.5 7 127.67 7 127 7.67 127 8.5L127 8.5ZM117 17.5C117 16.67 116.33 16 115.5 16L108.5 16C107.67 16 107 16.67 107 17.5 107 18.33 107.67 19 108.5 19L115.5 19C116.33 19 117 18.33 117 17.5L117 17.5Z" fill="#C6C8CC"/><path d="M260 12.5C260 13.33 260.53 14 261.2 14L274.8 14C275.46 14 276 13.33 276 12.5 276 11.67 275.47 11 274.8 11L261.2 11C260.54 11 260 11.67 260 12.5L260 12.5ZM263 21.5C263 22.33 263.51 23 264.13 23L264.87 23C265.5 23 266 22.33 266 21.5 266 20.67 265.49 20 264.87 20L264.13 20C263.5 20 263 20.67 263 21.5L263 21.5ZM294 12.5C294 13.33 294.67 14 295.5 14 296.33 14 297 13.33 297 12.5 297 11.67 296.33 11 295.5 11 294.67 11 294 11.67 294 12.5L294 12.5ZM284 21.5C284 20.67 283.33 20 282.5 20L275.5 20C274.67 20 274 20.67 274 21.5 274 22.33 274.67 23 275.5 23L282.5 23C283.33 23 284 22.33 284 21.5L284 21.5Z" id="ground-pattern-2" fill="#C6C8CC" transform="translate(278.500000, 17.000000) scale(1, -1) translate(-278.500000, -17.000000) "/></g></g></g></svg>