<?xml version="1.0" encoding="utf-8"?>
<!-- Generator: Adobe Illustrator 18.1.1, SVG Export Plug-In . SVG Version: 6.00 Build 0)  -->
<!DOCTYPE svg PUBLIC "-//W3C//DTD SVG 1.1//EN" "http://www.w3.org/Graphics/SVG/1.1/DTD/svg11.dtd">
<svg version="1.1" id="i-ipad" xmlns="http://www.w3.org/2000/svg" xmlns:xlink="http://www.w3.org/1999/xlink" x="0px" y="0px"
	 viewBox="0 0 170 250" enable-background="new 0 0 170 250" xml:space="preserve">
<g id="i-ipad-frame">
	<path fill="#FFFFFF" d="M6,248.5c-2.481,0-4.5-2.019-4.5-4.5V6c0-2.481,2.019-4.5,4.5-4.5h158c2.481,0,4.5,2.019,4.5,4.5v238
		c0,2.481-2.019,4.5-4.5,4.5H6z"/>
	<path fill="#4D5877" d="M164,3c1.65,0,3,1.35,3,3v238c0,1.65-1.35,3-3,3H6c-1.65,0-3-1.35-3-3V6c0-1.65,1.35-3,3-3H164 M164,0H6
		C2.692,0,0,2.692,0,6v238c0,3.308,2.692,6,6,6h158c3.308,0,6-2.692,6-6V6C170,2.692,167.308,0,164,0L164,0z"/>
</g>
<g id="i-ipad-screen">
	<path fill="#D0E2F5" d="M17,227.5c-2.481,0-4.5-2.019-4.5-4.5V27c0-2.481,2.019-4.5,4.5-4.5h136c2.481,0,4.5,2.019,4.5,4.5v196
		c0,2.481-2.019,4.5-4.5,4.5H17z"/>
	<path fill="#4D5877" d="M153,24c1.65,0,3,1.35,3,3v196c0,1.65-1.35,3-3,3H17c-1.65,0-3-1.35-3-3V27c0-1.65,1.35-3,3-3H153 M153,21
		H17c-3.308,0-6,2.692-6,6v196c0,3.308,2.692,6,6,6h136c3.308,0,6-2.692,6-6V27C159,23.692,156.308,21,153,21L153,21z"/>
</g>
<circle id="i-ipad-home" fill="#FFFFFF" stroke="#4D5877" stroke-width="3" stroke-miterlimit="10" cx="85" cy="238" r="4"/>
<path id="i-ipad-insetshadow" fill="#AEC4E6" d="M156,27H14v0c0-1.65,1.35-3,3-3h136C154.657,24,156,25.343,156,27L156,27z"/>
<polygon id="i-ipad-glare" opacity="0.1" fill="#4D5877" points="128,2 34.163,248 3.658,248 2,243 2,5 4.984,2 "/>
<g id="i-ipad-face">
	<circle id="i-ipad-lefteye" fill="#4D5877" cx="29.5" cy="56.5" r="3.5"/>
	<circle id="i-ipad-righteye" fill="#4D5877" cx="73.5" cy="56.5" r="3.5"/>
	<path id="i-ipad-mouth" fill="#4D5877" d="M38,65c2.148,5.841,7.598,10,14,10s11.852-4.159,14-10H38z"/>
</g>
</svg>
