<?xml version="1.0" encoding="UTF-8" standalone="no"?>
<svg width="127px" height="218px" viewBox="0 0 127 218" version="1.1" xmlns="http://www.w3.org/2000/svg" xmlns:xlink="http://www.w3.org/1999/xlink" xmlns:sketch="http://www.bohemiancoding.com/sketch/ns">
    <!-- Generator: Sketch 3.2.2 (9983) - http://www.bohemiancoding.com/sketch -->
    <title>Group</title>
    <desc>Created with Sketch.</desc>
    <defs>
        <filter x="-50%" y="-50%" width="200%" height="200%" filterUnits="objectBoundingBox" id="filter-1">
            <feOffset dx="0" dy="5" in="SourceAlpha" result="shadowOffsetInner1"></feOffset>
            <feGaussianBlur stdDeviation="0" in="shadowOffsetInner1" result="shadowBlurInner1"></feGaussianBlur>
            <feComposite in="shadowBlurInner1" in2="SourceAlpha" operator="arithmetic" k2="-1" k3="1" result="shadowInnerInner1"></feComposite>
            <feColorMatrix values="0 0 0 0 0.898039216   0 0 0 0 0.678431373   0 0 0 0 0.71372549  0 0 0 0.7 0" in="shadowInnerInner1" type="matrix" result="shadowMatrixInner1"></feColorMatrix>
            <feMerge>
                <feMergeNode in="SourceGraphic"></feMergeNode>
                <feMergeNode in="shadowMatrixInner1"></feMergeNode>
            </feMerge>
        </filter>
    </defs>
    <g id="Page-1" stroke="none" stroke-width="1" fill="none" fill-rule="evenodd" sketch:type="MSPage">
        <g id="Mobile-14" sketch:type="MSArtboardGroup" transform="translate(-136.000000, -907.000000)">
            <g id="Group-+-Group" sketch:type="MSLayerGroup" transform="translate(137.000000, 852.000000)">
                <g id="Group" transform="translate(0.000000, 55.000000)" sketch:type="MSShapeGroup">
                    <g id="Path-14-+-Path-15-+-Path-17-+-Path-16-+-Path-18-+-Path-19" transform="translate(0.000000, 68.000000)" stroke="#4D5776" stroke-width="3" stroke-linecap="round" stroke-linejoin="round">
                        <g id="Path-14-+-Path-15">
                            <path d="M22,0 C22,0 6,5 1,40 C1,40 -1,54 3,57" id="Path-14"></path>
                            <path d="M7,56 L3,57 L5,63" id="Path-180"></path>
                        </g>
                        <g id="Path-17-+-Path-16" transform="translate(108.000000, 0.000000)">
                            <path d="M0.5,0 C0.5,0 10,0 14,31 C14,31 15.9997432,52 16,57" id="Path-17"></path>
                            <path d="M17,56 L13,57 L15,63" id="Path-181" transform="translate(15.000000, 59.500000) scale(-1, 1) rotate(20.000000) translate(-15.000000, -59.500000) "></path>
                        </g>
                        <g id="Path-18-+-Path-19" transform="translate(48.000000, 79.000000)">
                            <path d="M8.98298549,2 C7.08831516,-4.76667965 8.98298568,19.5 1.98298549,39 C-3.96470803,55.5685743 4.98298558,66 8.98298558,69" id="Path-18" transform="translate(4.491493, 34.921002) scale(-1, 1) translate(-4.491493, -34.921002) "></path>
                            <path d="M38.9829855,2 C37.0883152,-4.76667965 38.9829857,19.5 31.9829855,39 C26.035292,55.5685743 34.9829856,66 38.9829856,69" id="Path-19" transform="translate(34.491493, 34.921002) scale(-1, 1) translate(-34.491493, -34.921002) "></path>
                        </g>
                    </g>
                    <g transform="translate(21.000000, 0.000000)">
                        <rect id="Rectangle-83" stroke="#4D5776" stroke-width="3" stroke-linecap="round" stroke-linejoin="round" fill="#FFFFFF" x="0" y="0" width="88" height="169" rx="6"></rect>
                        <path d="M49,158 C49,155.24 46.7625,153 44,153 C41.24,153 39,155.24 39,158 C39,160.7625 41.24,163 44,163 C46.7625,163 49,160.7625 49,158 Z" id="Path" stroke="#4D5776" stroke-width="3" fill="#FFFFFF"></path>
                        <rect id="Rectangle-7" stroke="#4D5776" stroke-width="3" stroke-linecap="round" stroke-linejoin="round" fill="#F9CFD6" filter="url(#filter-1)" x="11" y="21" width="66" height="129" rx="4"></rect>
                        <g id="Oval-19-+-Oval-20-+-Oval-18" transform="translate(23.000000, 46.000000)" fill="#4D5776">
                            <ellipse id="Oval-19" cx="3.5" cy="3.5" rx="3.5" ry="3.5"></ellipse>
                            <path d="M35.8154766,7 C35.0793947,11.688027 30.028767,15.3161812 23.9077383,15.3161812 C17.7867096,15.3161812 12.7360819,11.688027 12,7 L14.0316046,7 C14.7884109,10.5796488 18.9219736,13.3161812 23.9077383,13.3161812 C28.8935029,13.3161812 33.0270657,10.5796488 33.7838719,7 L35.8154766,7 Z" id="Oval-20"></path>
                            <ellipse id="Oval-18" cx="44.5" cy="3.5" rx="3.5" ry="3.5"></ellipse>
                        </g>
                        <path d="M62,3 L3,3 L3,166 L22,166 L62,3 Z" id="Rectangle-6" opacity="0.1" fill="#4D5776"></path>
                    </g>
                </g>
            </g>
        </g>
    </g>
</svg>