<svg xmlns="http://www.w3.org/2000/svg" width="1440px" height="166px" viewBox="0 0 1440 166" version="1.1"><g id="board" transform="translate(0.000000, -858.000000)" stroke="#DCDEE4" stroke-opacity="0.5" stroke-width="2" fill="#FFFFFF"><g id="mountains" transform="translate(-419.000000, 860.000000)"><path d="M13.8676981 164C1.18656813 164-1.86052109 156.685785 7.18378177 147.808544 7.18378177 147.808544 28.2917476 125.217553 64.7474179 97.4061646 101.203088 69.5947757 115.037369 63.1349432 149.284276 43.1763692 183.531183 23.2177953 195.208563 10.5185968 224.4854 4.31330944 253.762237-1.89197796 262.048428-2.34550292 309.286436 9.26357361 356.524444 20.8726501 340.476178 16.1230008 380.673359 42.6976113 420.870539 69.2722218 433.080417 63.518714 483.349658 97.4061614 533.618899 131.293609 544.866724 147.309797 544.866724 147.309797 553.564519 156.527542 550.332803 164 537.654258 164L13.8676981 164Z" id="Path-166" transform="translate(275.810605, 82.000000) scale(-1, 1) translate(-275.810605, -82.000000) "/><path d="M432.016568 164C419.335438 164 416.891027 157.349223 426.686479 149.294103 426.686479 149.294103 446.440617 131.40759 482.896287 108.035156 519.351958 84.6627221 533.186239 79.2339385 567.433145 62.4609375 601.680052 45.6879365 613.357433 35.0156474 642.63427 29.8007813 671.911107 24.5859151 680.197297 24.2047769 727.435306 33.9609375 774.673314 43.7170981 758.625048 39.7255367 798.822228 62.0585938 839.019409 84.3916508 851.229287 79.556456 901.498528 108.035154 951.767769 136.513851 961.584729 148.799914 961.584729 148.799914 971.072769 157.19469 968.481673 164 955.803128 164L432.016568 164Z" id="Path-162" transform="translate(693.959474, 95.087958) scale(-1, 1) translate(-693.959474, -95.087958) "/><path d="M1134.84279 164C1122.16078 164 1120.38974 158.249406 1130.98275 151.267212 1130.98275 151.267212 1168.01288 125.217553 1222.75002 97.4061646 1277.48715 69.5947757 1298.25893 63.1349432 1349.67967 43.1763692 1401.10041 23.2177953 1418.63366 10.5185968 1462.59199 4.31330944 1506.55031-1.89197796 1518.99179-2.34550292 1589.9183 9.26357361 1660.8448 20.8726501 1636.7488 16.1230008 1697.1037 42.6976113 1757.45861 69.2722218 1775.79139 63.518714 1851.2692 97.4061614 1926.74702 131.293609 1948.63973 150.624971 1948.63973 150.624971 1958.93535 158.011795 1957.00344 164 1944.31879 164L1134.84279 164Z" id="Path-165" transform="translate(1539.655302, 82.000000) scale(-1, 1) translate(-1539.655302, -82.000000) "/><path d="M651.170801 164C638.488597 164 636.328261 157.683503 646.426812 150.035161 646.426812 150.035161 676.91373 125.217553 724.408729 97.4061646 771.903727 69.5947757 789.927237 63.1349432 834.544625 43.1763692 879.162013 23.2177953 894.375481 10.5185968 932.517787 4.31330944 970.660093-1.89197796 981.455467-2.34550292 1042.99786 9.26357361 1104.54025 20.8726501 1083.63233 16.1230008 1136.00182 42.6976113 1188.37132 69.2722218 1204.27853 63.518714 1269.77006 97.4061614 1335.26158 131.293609 1352.70801 149.43155 1352.70801 149.43155 1362.49733 157.477483 1360.15299 164 1347.46997 164L651.170801 164Z" id="Path-163"/><path d="M1111.13317 164C1098.4577 164 1095.5493 156.83992 1104.79523 148.150658 1104.79523 148.150658 1120.79186 131.40759 1152.59066 108.035156 1184.38946 84.6627221 1196.45654 79.2339385 1226.32873 62.4609375 1256.20092 45.6879365 1266.38663 35.0156474 1291.92362 29.8007813 1317.46062 24.5859151 1324.68833 24.2047769 1365.89213 33.9609375 1407.09593 43.7170981 1393.09768 39.7255367 1428.16005 62.0585938 1463.22242 84.3916508 1473.8726 79.556456 1517.72042 108.035154 1561.56824 136.513851 1568.95937 147.709325 1568.95937 147.709325 1577.88257 156.706416 1574.83693 164 1562.1653 164L1111.13317 164Z" id="Path-164" transform="translate(1336.692520, 95.087958) scale(-1, 1) translate(-1336.692520, -95.087958) "/></g></g></svg>