<svg viewBox="0 0 200 34" version="1.1" xmlns="http://www.w3.org/2000/svg" xmlns:xlink="http://www.w3.org/1999/xlink" xmlns:sketch="http://www.bohemiancoding.com/sketch/ns">
	<g transform="translate(-50.000000, -55.000000)" fill="#4D5776">
		<path d="M79.9869053,67.3163265 C79.9869053,67.3163265 75.5783501,67.4897959 72.6102139,67.4897959 C69.161938,67.4897959 66.5866434,67.3163265 66.5866434,67.3163265 L66.5866434,67.7066327 C68.2453077,67.7066327 69.2928852,68.9642857 69.9476211,71.002551 L70.6460061,73.0408163 L66.9794849,83.4056122 L63.5748581,71.4795918 C63.3129638,70.4821429 63.2256656,69.9183673 63.2256656,69.2244898 C63.2256656,68.3571429 63.6185072,67.7066327 64.8406809,67.7066327 L64.8406809,67.3163265 C64.8406809,67.3163265 62.6582278,67.4897959 58.2060236,67.4897959 C53.7538193,67.4897959 50,67.3163265 50,67.3163265 L50,67.7066327 C51.7459625,67.7066327 52.2697512,68.3571429 52.7935399,69.8316327 L59.253601,88.1326531 L65.8009603,88.1326531 L70.9079005,73.7780612 L75.534701,88.1326531 L82.649498,88.1326531 L87.1453514,73.0408163 C88.0619817,69.875 89.7642951,67.7066327 92.0340463,67.7066327 L92.0340463,67.3163265 C92.0340463,67.3163265 90.419031,67.4897959 88.0619817,67.4897959 C85.3120908,67.4897959 83.3915321,67.3163265 83.3915321,67.3163265 L83.3915321,67.7066327 C86.0104758,67.8367347 86.7525098,69.2678571 86.7525098,71.002551 C86.7525098,72.3903061 86.3596683,73.9515306 86.0104758,75.2091837 L83.6097774,83.4056122 L80.510694,71.1760204 C79.8559581,68.877551 79.9869053,67.3163265 79.9869053,67.3163265 L79.9869053,67.3163265 Z M98.5814055,75.4260204 L111.763422,75.4260204 L112.33086,74.8622449 C112.025316,69.1811224 107.747708,66.4489796 101.811436,66.4489796 C94.1728503,66.4489796 88.323876,71.8265306 88.323876,78.244898 C88.323876,84.7066327 92.6451331,89 100.807508,89 C105.390659,89 108.577041,87.6556122 110.93409,84.880102 L110.715845,84.7066327 C109.013531,85.877551 107.092973,86.5714286 104.779572,86.5714286 C100.371017,86.5714286 98.5377564,82.494898 98.5377564,77.2908163 C98.5377564,76.7270408 98.5377564,76.0765306 98.5814055,75.4260204 Z M98.6250546,75.0790816 C99.1051942,69.4846939 99.9781755,66.7959184 101.418595,66.7959184 C102.728066,66.7959184 103.688346,68.747449 103.688346,72.0867347 C103.688346,72.8673469 103.644697,73.6913265 103.513749,74.5586735 L98.6250546,75.0790816 Z M140.178961,77.1607143 L140.178961,55.5637755 C140.178961,55.5637755 134.63553,57.7755102 128.000873,57.7755102 L128.175469,58.1658163 C129.746835,58.1658163 130.488869,58.6862245 130.488869,60.377551 L130.488869,84.7066327 C130.488869,86.5714286 129.703186,87.7423469 128.000873,87.7423469 L128.000873,88.1326531 C128.000873,88.1326531 131.012658,88.002551 135.377564,88.002551 C139.78612,88.002551 141.881275,88.1326531 141.881275,88.1326531 L141.881275,87.7423469 C140.920995,87.7423469 140.178961,87.3954082 140.178961,86.0943878 L140.178961,77.5076531 C140.920995,77.5510204 141.488433,78.0714286 141.750327,78.6785714 L144.151026,84.0561224 C145.722392,87.6122449 148.690528,89 152.3134,89 C156.02357,89 158.424269,87.4821429 158.424269,87.4821429 L158.424269,87.1352041 C156.940201,87.1352041 156.198167,86.0943878 155.10694,84.3596939 L147.337407,71.8265306 C149.170668,69.6147959 151.39677,67.7066327 155.761676,67.7066327 L155.761676,67.3163265 L144.238324,67.3163265 L144.238324,67.7066327 C146.595373,67.7066327 147.730249,68.4438776 147.730249,69.6581633 C147.730249,70.3954082 147.337407,71.2627551 146.551724,72.2602041 L142.710607,77.1607143 L140.178961,77.1607143 Z M173.308599,70.3520408 C174.574422,70.3520408 175.141859,71.2193878 175.141859,72.3469388 C175.141859,73.127551 174.836316,73.9081633 174.618071,74.3418367 C175.185509,74.8188776 176.451331,75.2091837 177.45526,75.2091837 C180.379747,75.2091837 181.907464,72.9540816 181.907464,70.6122449 C181.907464,68.3137755 180.2488,66.4489796 177.760803,66.4489796 C174.356176,66.4489796 173.26495,69.6581633 171.169795,70.3954082 L171.169795,66.4489796 C171.169795,66.4489796 165.626364,68.5739796 158.991707,68.5739796 L159.166303,68.9209184 C160.737669,68.9209184 161.479703,69.5280612 161.479703,71.2193878 L161.479703,84.7066327 C161.479703,86.5714286 160.69402,87.7423469 158.991707,87.7423469 L158.991707,88.1326531 C158.991707,88.1326531 162.003492,88.002551 166.368398,88.002551 C170.776953,88.002551 173.483195,88.1326531 173.483195,88.1326531 L173.483195,87.7423469 C171.999127,87.7423469 171.169795,87.3086735 171.169795,85.9209184 L171.169795,70.7857143 C171.86818,70.6556122 172.479267,70.3520408 173.308599,70.3520408 L173.308599,70.3520408 Z M195.787866,86.0943878 C194.914884,86.3979592 194.347447,86.7015306 193.605412,86.7015306 C192.252292,86.7015306 191.641205,85.4438776 191.641205,83.4489796 C191.641205,80.630102 192.645133,78.1147959 195.045832,77.6377551 C195.045832,77.6377551 194.871235,78.8086735 194.871235,81.1505102 C194.871235,84.9234694 195.787866,86.0943878 195.787866,86.0943878 L195.787866,86.0943878 Z M194.609341,66.4489796 C189.284155,66.4489796 183.347883,68.4872449 183.347883,72.130102 C183.347883,74.0816327 184.8756,75.4260204 187.232649,75.4260204 C188.629419,75.4260204 190.680925,74.8188776 191.85945,73.9081633 C191.030118,72.6938776 190.593627,71.6096939 190.593627,70.005102 C190.593627,68.2270408 191.422959,66.7959184 193.037975,66.7959184 C194.65299,66.7959184 195.307726,68.0102041 195.307726,71.002551 C195.307726,74.2984694 195.045832,77.247449 195.045832,77.247449 C186.577914,77.247449 181.907464,79.8928571 181.907464,84.3163265 C181.907464,87.6122449 184.657355,89 187.800087,89 C191.597556,89 193.954605,86.9617347 195.918813,86.4413265 C197.097337,88.2627551 199.27979,88.869898 201.593191,88.869898 C204.212134,88.869898 206.394588,88.002551 207.22392,86.5714286 L207.049323,86.4413265 C206.74378,86.8316327 206.219991,87.1352041 205.783501,87.1352041 C204.86687,87.1352041 204.124836,86.5714286 204.124836,84.3163265 C204.124836,81.2806122 204.561327,79.2857143 204.561327,75.1658163 C204.561327,69.2244898 202.116979,66.4489796 194.609341,66.4489796 Z M239.262331,85.5306122 C238.607595,86.0510204 237.734614,86.3112245 237.036229,86.3112245 C236.119598,86.3112245 235.290266,85.7040816 235.290266,84.3163265 L235.290266,67.7066327 L237.952859,67.7066327 L237.952859,67.3163265 L235.290266,67.3163265 L235.290266,61.375 L234.941074,61.244898 C232.714972,64.4540816 228.437364,67.3163265 224.247054,67.3163265 L219.489306,67.3163265 L219.489306,62.8494898 C219.489306,57.3852041 220.667831,55.4336735 222.239197,55.4336735 C223.286774,55.4336735 223.592318,56.3877551 223.592318,57.6887755 C223.592318,59.0765306 222.937582,60.9413265 222.195548,61.9821429 C223.02488,62.9362245 224.814491,63.7168367 226.516805,63.7168367 C229.353994,63.7168367 230.969009,62.0255102 230.969009,59.6403061 C230.969009,56.9515306 227.65168,55 223.461371,55 C215.60454,55 209.799214,59.7270408 209.799214,67.3163265 L207.965954,67.3163265 L207.965954,67.7066327 L209.799214,67.7066327 L209.799214,84.7066327 C209.799214,86.5714286 208.969882,87.7423469 207.267569,87.7423469 L207.267569,88.1326531 C207.267569,88.1326531 210.497599,88.002551 214.64426,88.002551 C218.747272,88.002551 221.890004,88.1326531 221.890004,88.1326531 L221.890004,87.7423469 C220.274989,87.7423469 219.489306,87.2219388 219.489306,85.9209184 L219.489306,67.7066327 L225.643824,67.7066327 L225.643824,82.9285714 C225.643824,87.6122449 228.262767,89 231.972938,89 C235.072021,89 237.952859,87.7857143 239.436927,85.7040816 L239.262331,85.5306122 Z M245.285901,88.9566327 C248.384985,88.9566327 250,87.005102 250,84.4030612 C250,81.8443878 248.384985,79.8061224 245.285901,79.8061224 C242.186818,79.8061224 240.615452,81.8443878 240.615452,84.4030612 C240.615452,87.005102 242.186818,88.9566327 245.285901,88.9566327 L245.285901,88.9566327 Z"></path>
	</g>
</svg>