<svg xmlns="http://www.w3.org/2000/svg" viewBox="0 0 200 34" version="1.1"><g fill="#111" transform="translate(-50.000000, -55.000000)"><path d="M80 67.3C80 67.3 75.6 67.5 72.6 67.5 69.2 67.5 66.6 67.3 66.6 67.3L66.6 67.7C68.2 67.7 69.3 69 69.9 71L70.6 73 67 83.4 63.6 71.5C63.3 70.5 63.2 69.9 63.2 69.2 63.2 68.4 63.6 67.7 64.8 67.7L64.8 67.3C64.8 67.3 62.7 67.5 58.2 67.5 53.8 67.5 50 67.3 50 67.3L50 67.7C51.7 67.7 52.3 68.4 52.8 69.8L59.3 88.1 65.8 88.1 70.9 73.8 75.5 88.1 82.6 88.1 87.1 73C88.1 69.9 89.8 67.7 92 67.7L92 67.3C92 67.3 90.4 67.5 88.1 67.5 85.3 67.5 83.4 67.3 83.4 67.3L83.4 67.7C86 67.8 86.8 69.3 86.8 71 86.8 72.4 86.4 74 86 75.2L83.6 83.4 80.5 71.2C79.9 68.9 80 67.3 80 67.3L80 67.3ZM98.6 75.4L111.8 75.4 112.3 74.9C112 69.2 107.7 66.4 101.8 66.4 94.2 66.4 88.3 71.8 88.3 78.2 88.3 84.7 92.6 89 100.8 89 105.4 89 108.6 87.7 110.9 84.9L110.7 84.7C109 85.9 107.1 86.6 104.8 86.6 100.4 86.6 98.5 82.5 98.5 77.3 98.5 76.7 98.5 76.1 98.6 75.4ZM98.6 75.1C99.1 69.5 100 66.8 101.4 66.8 102.7 66.8 103.7 68.7 103.7 72.1 103.7 72.9 103.6 73.7 103.5 74.6L98.6 75.1ZM140.2 77.2L140.2 55.6C140.2 55.6 134.6 57.8 128 57.8L128.2 58.2C129.7 58.2 130.5 58.7 130.5 60.4L130.5 84.7C130.5 86.6 129.7 87.7 128 87.7L128 88.1C128 88.1 131 88 135.4 88 139.8 88 141.9 88.1 141.9 88.1L141.9 87.7C140.9 87.7 140.2 87.4 140.2 86.1L140.2 77.5C140.9 77.6 141.5 78.1 141.8 78.7L144.2 84.1C145.7 87.6 148.7 89 152.3 89 156 89 158.4 87.5 158.4 87.5L158.4 87.1C156.9 87.1 156.2 86.1 155.1 84.4L147.3 71.8C149.2 69.6 151.4 67.7 155.8 67.7L155.8 67.3 144.2 67.3 144.2 67.7C146.6 67.7 147.7 68.4 147.7 69.7 147.7 70.4 147.3 71.3 146.6 72.3L142.7 77.2 140.2 77.2ZM173.3 70.4C174.6 70.4 175.1 71.2 175.1 72.3 175.1 73.1 174.8 73.9 174.6 74.3 175.2 74.8 176.5 75.2 177.5 75.2 180.4 75.2 181.9 73 181.9 70.6 181.9 68.3 180.2 66.4 177.8 66.4 174.4 66.4 173.3 69.7 171.2 70.4L171.2 66.4C171.2 66.4 165.6 68.6 159 68.6L159.2 68.9C160.7 68.9 161.5 69.5 161.5 71.2L161.5 84.7C161.5 86.6 160.7 87.7 159 87.7L159 88.1C159 88.1 162 88 166.4 88 170.8 88 173.5 88.1 173.5 88.1L173.5 87.7C172 87.7 171.2 87.3 171.2 85.9L171.2 70.8C171.9 70.7 172.5 70.4 173.3 70.4L173.3 70.4ZM195.8 86.1C194.9 86.4 194.3 86.7 193.6 86.7 192.3 86.7 191.6 85.4 191.6 83.4 191.6 80.6 192.6 78.1 195 77.6 195 77.6 194.9 78.8 194.9 81.2 194.9 84.9 195.8 86.1 195.8 86.1L195.8 86.1ZM194.6 66.4C189.3 66.4 183.3 68.5 183.3 72.1 183.3 74.1 184.9 75.4 187.2 75.4 188.6 75.4 190.7 74.8 191.9 73.9 191 72.7 190.6 71.6 190.6 70 190.6 68.2 191.4 66.8 193 66.8 194.7 66.8 195.3 68 195.3 71 195.3 74.3 195 77.2 195 77.2 186.6 77.2 181.9 79.9 181.9 84.3 181.9 87.6 184.7 89 187.8 89 191.6 89 194 87 195.9 86.4 197.1 88.3 199.3 88.9 201.6 88.9 204.2 88.9 206.4 88 207.2 86.6L207 86.4C206.7 86.8 206.2 87.1 205.8 87.1 204.9 87.1 204.1 86.6 204.1 84.3 204.1 81.3 204.6 79.3 204.6 75.2 204.6 69.2 202.1 66.4 194.6 66.4ZM239.3 85.5C238.6 86.1 237.7 86.3 237 86.3 236.1 86.3 235.3 85.7 235.3 84.3L235.3 67.7 238 67.7 238 67.3 235.3 67.3 235.3 61.4 234.9 61.2C232.7 64.5 228.4 67.3 224.2 67.3L219.5 67.3 219.5 62.8C219.5 57.4 220.7 55.4 222.2 55.4 223.3 55.4 223.6 56.4 223.6 57.7 223.6 59.1 222.9 60.9 222.2 62 223 62.9 224.8 63.7 226.5 63.7 229.4 63.7 231 62 231 59.6 231 57 227.7 55 223.5 55 215.6 55 209.8 59.7 209.8 67.3L208 67.3 208 67.7 209.8 67.7 209.8 84.7C209.8 86.6 209 87.7 207.3 87.7L207.3 88.1C207.3 88.1 210.5 88 214.6 88 218.7 88 221.9 88.1 221.9 88.1L221.9 87.7C220.3 87.7 219.5 87.2 219.5 85.9L219.5 67.7 225.6 67.7 225.6 82.9C225.6 87.6 228.3 89 232 89 235.1 89 238 87.8 239.4 85.7L239.3 85.5ZM245.3 89C248.4 89 250 87 250 84.4 250 81.8 248.4 79.8 245.3 79.8 242.2 79.8 240.6 81.8 240.6 84.4 240.6 87 242.2 89 245.3 89L245.3 89Z"/></g></svg>